HIERARCHY
ROOT Hips
{
	OFFSET 0.00000 0.00000 0.00000
	CHANNELS 6 Xposition Yposition Zposition Zrotation Yrotation Xrotation 
	JOINT LHipJoint
	{
		OFFSET 0 0 0
		CHANNELS 3 Zrotation Yrotation Xrotation
		JOINT LeftHip
		{
			OFFSET 1.41496 -1.84582 0.78394
			CHANNELS 3 Zrotation Yrotation Xrotation
			JOINT LeftKnee
			{
				OFFSET 2.58040 -7.08960 0.00000
				CHANNELS 3 Zrotation Yrotation Xrotation
				JOINT LeftAnkle
				{
					OFFSET 2.64719 -7.27309 0.00000
					CHANNELS 3 Zrotation Yrotation Xrotation
					JOINT LeftToe
					{
						OFFSET 0.20718 -0.56921 2.20259
						CHANNELS 3 Zrotation Yrotation Xrotation
						End Site
						{
							OFFSET 0.00000 -0.00000 1.14243
						}
					}
				}
			}
		}
	}
	JOINT RHipJoint
	{
		OFFSET 0 0 0
		CHANNELS 3 Zrotation Yrotation Xrotation
		JOINT RightHip
		{
			OFFSET -1.40551 -1.84582 0.78394
			CHANNELS 3 Zrotation Yrotation Xrotation
			JOINT RightKnee
			{
				OFFSET -2.56572 -7.04926 0.00000
				CHANNELS 3 Zrotation Yrotation Xrotation
				JOINT RightAnkle
				{
					OFFSET -2.57974 -7.08778 0.00000
					CHANNELS 3 Zrotation Yrotation Xrotation
					JOINT RightToe
					{
						OFFSET -0.26704 -0.73369 2.20815
						CHANNELS 3 Zrotation Yrotation Xrotation
						End Site
						{
							OFFSET -0.00000 -0.00000 1.16246
						}
					}
				}
			}
		}
	}
	JOINT lowerback
	{
		OFFSET 0 0 0
		CHANNELS 3 Zrotation Yrotation Xrotation
		JOINT Chest
		{
			OFFSET -0.04690 2.05196 -0.07017
			CHANNELS 3 Zrotation Yrotation Xrotation
			JOINT Chest2
			{
				OFFSET 0.04085 2.05260 0.00800
				CHANNELS 3 Zrotation Yrotation Xrotation
				JOINT lowerneck
				{
					OFFSET 0 0 0
					CHANNELS 3 Zrotation Yrotation Xrotation
					JOINT Neck
					{
						OFFSET -0.03582 1.80995 0.19301
						CHANNELS 3 Zrotation Yrotation Xrotation
						JOINT Head
						{
							OFFSET 0.00952 1.80195 -0.36389
							CHANNELS 3 Zrotation Yrotation Xrotation
							End Site
							{
								OFFSET 0.00392 1.85062 -0.14494
							}
						}
					}
				}
				JOINT LeftCollar
				{
					OFFSET 0 0 0
					CHANNELS 3 Zrotation Yrotation Xrotation
					JOINT LeftShoulder
					{
						OFFSET 3.55224 1.39726 -0.13667
CHANNELS 3 Zrotation Xrotation Yrotation
						JOINT LeftElbow
						{
OFFSET 0 -5.145070 -0.000000
CHANNELS 3 Zrotation Xrotation Yrotation
							JOINT LeftWrist
							{
OFFSET 0 -3.506460 0.000000
CHANNELS 3 Zrotation Xrotation Yrotation
								JOINT lhand
								{
									OFFSET 0 0 0
CHANNELS 3 Zrotation Xrotation Yrotation
									JOINT LFingers
									{
OFFSET 0 -0.629970 0.000000
CHANNELS 3 Zrotation Xrotation Yrotation
										End Site
										{
OFFSET 0 -0.507900 0.000000
										}
									}
								}
								JOINT LThumb
								{
OFFSET 0 0.000000 0.000000
CHANNELS 3 Zrotation Xrotation Yrotation
									End Site
									{
OFFSET 0 -0.515650 0.515650
									}
								}
							}
						}
					}
				}
				JOINT RightCollar
				{
					OFFSET 0 0 0
					CHANNELS 3 Zrotation Yrotation Xrotation
					JOINT RightShoulder
					{
						OFFSET -3.06467 1.61290 -0.28813
CHANNELS 3 Zrotation Xrotation Yrotation
						JOINT RightElbow
						{
OFFSET 0 -5.232000 -0.000000
CHANNELS 3 Zrotation Xrotation Yrotation
							JOINT RightWrist
							{
OFFSET 0 -3.656410 0.000000
CHANNELS 3 Zrotation Xrotation Yrotation
								JOINT rhand
								{
									OFFSET 0 0 0
CHANNELS 3 Zrotation Xrotation Yrotation
									JOINT RFingers
									{
OFFSET 0 -0.656810 0.000000
CHANNELS 3 Zrotation Xrotation Yrotation
										End Site
										{
OFFSET 0 -0.529530 0.000000
										}
									}
								}
								JOINT RThumb
								{
OFFSET 0 0.000000 0.000000
CHANNELS 3 Zrotation Xrotation Yrotation
									End Site
									{
OFFSET 0 -0.537620 0.537620
									}
								}
							}
						}
					}
				}
			}
		}
	}
}
MOTION
Frames: 12
Frame Time: 0.008333333333333333
-0.542351 21.155740 -1.710683 181.858559 -2.090940 -165.588576 0.000000 0.000000 0.000000 -7.721716 -11.885699 -48.793120 22.716831 19.821752 97.966229 0.311090 -9.812451 -11.279530 0.147304 -2.473151 -6.815260 0.000000 0.000000 0.000000 28.674189 1.993740 -18.407518 -6.298970 -14.709997 46.166507 -1.914753 -2.449289 -27.118759 -3.810156 11.902451 -35.389076 1.972873 0.841689 12.107679 3.150113 1.570171 -1.921419 1.955414 0.694491 -8.912210 -3.072119 -2.878871 -18.225958 -0.762308 -3.132293 7.506857 -0.055571 -1.723745 5.229685 0.000000 0.000000 0.000000 8.365325 26.637678 -49.569594 95.637486 -59.877709 64.880058 26.325135 -17.769194 15.473364 0.000000 0.000000 0.000000 -7.125000 0.000000 0.000000 -0.884546 12.817682 -0.666370 0.000000 0.000000 0.000000 -3.171013 13.289964 32.267392 -117.403759 -56.958401 -83.489404 -28.455989 -6.460011 -1.566383 0.000000 0.000000 0.000000 7.125000 0.000000 0.000000 -1.456195 28.197223 -0.595358
-0.529454 21.159420 -1.884848 181.999678 -2.157819 -165.615728 0.000000 0.000000 0.000000 -7.497749 -11.985696 -49.446159 22.602293 19.836257 97.628688 0.313269 -9.881152 -11.332191 0.150913 -2.503054 -6.898181 0.000000 0.000000 0.000000 28.907767 1.590820 -17.533155 -6.142311 -14.561590 45.544121 -1.871060 -2.277267 -26.746278 -3.891469 12.012952 -35.780028 2.109418 0.925467 11.979636 3.144540 1.697714 -1.969256 1.848843 0.748473 -8.888631 -3.143357 -2.985014 -18.252074 -0.683925 -3.260478 7.612571 -0.033314 -1.781836 5.271056 0.000000 0.000000 0.000000 8.730376 27.083434 -49.831181 96.284059 -59.847128 65.439173 26.169404 -17.843183 15.491691 0.000000 0.000000 0.000000 -7.125000 0.000000 0.000000 -0.990439 12.819647 -0.746111 0.000000 0.000000 0.000000 -3.332638 13.204293 32.582175 -118.251078 -56.750403 -84.198212 -28.389967 -6.633033 -1.654948 0.000000 0.000000 0.000000 7.125000 0.000000 0.000000 -1.402784 28.097868 -0.576673
-0.516557 21.163099 -2.059013 182.140796 -2.224699 -165.642880 0.000000 0.000000 0.000000 -7.273781 -12.085694 -50.099198 22.487754 19.850762 97.291147 0.315448 -9.949854 -11.384851 0.154521 -2.532957 -6.981101 0.000000 0.000000 0.000000 29.141345 1.187899 -16.658792 -5.985651 -14.413183 44.921734 -1.827367 -2.105246 -26.373796 -3.972782 12.123453 -36.170980 2.245964 1.009245 11.851593 3.138967 1.825256 -2.017093 1.742272 0.802456 -8.865052 -3.214595 -3.091156 -18.278190 -0.605542 -3.388664 7.718285 -0.011056 -1.839927 5.312427 0.000000 0.000000 0.000000 9.095426 27.529190 -50.092768 96.930632 -59.816546 65.998288 26.013674 -17.917172 15.510019 0.000000 0.000000 0.000000 -7.125000 0.000000 0.000000 -1.096331 12.821612 -0.825852 0.000000 0.000000 0.000000 -3.494263 13.118621 32.896959 -119.098396 -56.542405 -84.907020 -28.323945 -6.806055 -1.743513 0.000000 0.000000 0.000000 7.125000 0.000000 0.000000 -1.349373 27.998514 -0.557988
-0.504086 21.168157 -2.235082 182.275154 -2.290827 -165.675541 0.000000 0.000000 0.000000 -7.083945 -12.189273 -50.687806 22.338083 19.867471 96.850809 0.316801 -9.995742 -11.418956 0.158079 -2.561733 -7.060892 0.000000 0.000000 0.000000 29.347828 0.784278 -15.764495 -5.821905 -14.250503 44.256877 -1.774108 -1.896237 -25.910639 -4.047584 12.222535 -36.525095 2.381383 1.092171 11.722248 3.128861 1.950445 -2.064555 1.632946 0.855311 -8.838743 -3.288813 -3.195972 -18.295316 -0.523327 -3.515573 7.819842 0.013029 -1.897116 5.351645 0.000000 0.000000 0.000000 9.461578 27.980655 -50.350900 97.580486 -59.779353 66.559857 25.860472 -17.986554 15.520859 0.000000 0.000000 0.000000 -7.125000 0.000000 0.000000 -1.199870 12.831190 -0.903590 0.000000 0.000000 0.000000 -3.662149 13.048526 33.219406 -119.925932 -56.323789 -85.595945 -28.260878 -6.978401 -1.845301 0.000000 0.000000 0.000000 7.125000 0.000000 0.000000 -1.297941 27.884284 -0.540079
-0.491796 21.173801 -2.411962 182.406626 -2.356635 -165.710553 0.000000 0.000000 0.000000 -6.908672 -12.294379 -51.248921 22.173421 19.885119 96.366612 0.317802 -10.031897 -11.445143 0.161616 -2.590028 -7.139346 0.000000 0.000000 0.000000 29.542750 0.380358 -14.861694 -5.655135 -14.081732 43.573899 -1.716767 -1.671448 -25.408793 -4.119608 12.316745 -36.863494 2.516321 1.174735 11.592348 3.116821 2.074629 -2.111857 1.522445 0.907686 -8.811269 -3.364303 -3.300221 -18.308606 -0.439478 -3.641936 7.919625 0.037894 -1.953921 5.389943 0.000000 0.000000 0.000000 9.828201 28.434557 -50.607557 98.231739 -59.739340 67.122474 25.708350 -18.053969 15.528504 0.000000 0.000000 0.000000 -7.125000 0.000000 0.000000 -1.302404 12.844016 -0.980473 0.000000 0.000000 0.000000 -3.832706 12.985076 33.545121 -120.745027 -56.100643 -86.276386 -28.199071 -7.150458 -1.952729 0.000000 0.000000 0.000000 7.125000 0.000000 0.000000 -1.247353 27.763708 -0.522502
-0.479506 21.179446 -2.588843 182.538098 -2.422442 -165.745564 0.000000 0.000000 0.000000 -6.733400 -12.399486 -51.810037 22.008758 19.902768 95.882415 0.318802 -10.068052 -11.471330 0.165153 -2.618323 -7.217801 0.000000 0.000000 0.000000 29.737672 -0.023563 -13.958893 -5.488365 -13.912962 42.890921 -1.659427 -1.446659 -24.906947 -4.191632 12.410955 -37.201893 2.651258 1.257298 11.462447 3.104781 2.198814 -2.159158 1.411944 0.960060 -8.783796 -3.439792 -3.404470 -18.321896 -0.355628 -3.768300 8.019408 0.062760 -2.010726 5.428242 0.000000 0.000000 0.000000 10.194823 28.888458 -50.864214 98.882992 -59.699327 67.685090 25.556228 -18.121384 15.536150 0.000000 0.000000 0.000000 -7.125000 0.000000 0.000000 -1.404938 12.856841 -1.057355 0.000000 0.000000 0.000000 -4.003263 12.921626 33.870837 -121.564122 -55.877497 -86.956828 -28.137265 -7.322516 -2.060158 0.000000 0.000000 0.000000 7.125000 0.000000 0.000000 -1.196764 27.643132 -0.504925
-0.467893 21.186541 -2.768236 182.663449 -2.483900 -165.789920 0.000000 0.000000 0.000000 -6.598241 -12.503078 -52.282193 21.801952 19.920095 95.275587 0.318352 -10.076755 -11.469518 0.168819 -2.646812 -7.296933 0.000000 0.000000 0.000000 29.898022 -0.421877 -13.028285 -5.314765 -13.725407 42.156777 -1.590326 -1.177180 -24.281568 -4.248642 12.483545 -37.465605 2.785069 1.338895 11.331161 3.088392 2.320259 -2.204527 1.299155 1.011146 -8.751618 -3.517827 -3.505304 -18.322201 -0.268235 -3.891023 8.112619 0.089526 -2.065468 5.463028 0.000000 0.000000 0.000000 10.555001 29.350447 -51.105180 99.520261 -59.652031 68.234979 25.413063 -18.169693 15.533581 0.000000 0.000000 0.000000 -7.125000 0.000000 0.000000 -1.500674 12.879237 -1.128696 0.000000 0.000000 0.000000 -4.180619 12.874093 34.203738 -122.343231 -55.646007 -87.599700 -28.073751 -7.478044 -2.185662 0.000000 0.000000 0.000000 7.125000 0.000000 0.000000 -1.144501 27.502580 -0.486413
-0.456353 21.193793 -2.947903 182.788134 -2.544885 -165.835292 0.000000 0.000000 0.000000 -6.467448 -12.606505 -52.744668 21.590560 19.937386 94.655415 0.317745 -10.082471 -11.464659 0.172498 -2.675321 -7.376138 0.000000 0.000000 0.000000 30.054610 -0.819581 -12.094652 -5.140421 -13.535808 41.417066 -1.519945 -0.902838 -23.642747 -4.304017 12.553783 -37.721190 2.918756 1.420386 11.199725 3.071529 2.441407 -2.249684 1.186117 1.062092 -8.718929 -3.596139 -3.605766 -18.321094 -0.180455 -4.013349 8.205114 0.116500 -2.119986 5.497433 0.000000 0.000000 0.000000 10.914478 29.813316 -51.344438 100.156009 -59.603944 68.783484 25.270873 -18.215923 15.529902 0.000000 0.000000 0.000000 -7.125000 0.000000 0.000000 -1.595670 12.902673 -1.199434 0.000000 0.000000 0.000000 -4.358714 12.828292 34.537421 -123.117989 -55.413608 -88.238485 -28.010051 -7.631774 -2.313133 0.000000 0.000000 0.000000 7.125000 0.000000 0.000000 -1.092054 27.359853 -0.467800
-0.444872 21.201134 -3.127831 182.912230 -2.605656 -165.881068 0.000000 0.000000 0.000000 -6.340485 -12.709812 -53.198205 21.374786 19.954211 94.022555 0.316803 -10.085106 -11.454548 0.176072 -2.702960 -7.452915 0.000000 0.000000 0.000000 30.207499 -1.215912 -11.158874 -4.965574 -13.344038 40.671930 -1.448301 -0.625441 -22.988968 -4.357072 12.620983 -37.965860 3.051995 1.501584 11.067381 3.054376 2.561919 -2.294758 1.073307 1.112773 -8.685435 -3.674833 -3.705644 -18.317878 -0.092169 -4.135048 8.296195 0.143796 -2.174167 5.531128 0.000000 0.000000 0.000000 11.272336 30.277129 -51.580894 100.788793 -59.555206 69.329355 25.130695 -18.260228 15.525799 0.000000 0.000000 0.000000 -7.125000 0.000000 0.000000 -1.689292 12.926275 -1.269111 0.000000 0.000000 0.000000 -4.537444 12.783509 34.871783 -123.886626 -55.181040 -88.871742 -27.945709 -7.782371 -2.442654 0.000000 0.000000 0.000000 7.125000 0.000000 0.000000 -1.039068 27.214868 -0.448889
-0.433905 21.209244 -3.310035 183.031199 -2.664569 -165.930371 0.000000 0.000000 0.000000 -6.246953 -12.812060 -53.573723 21.120773 19.966965 93.278949 0.312945 -10.060848 -11.398601 0.178716 -2.723003 -7.508505 0.000000 0.000000 0.000000 30.328111 -1.600254 -10.204377 -4.786335 -13.133325 39.879451 -1.365631 -0.321375 -22.204634 -4.389868 12.661675 -38.115267 3.181324 1.580217 10.927120 3.034691 2.676886 -2.339094 0.962484 1.161146 -8.644922 -3.756860 -3.800426 -18.296264 0.000540 -4.251265 8.374935 0.173913 -2.225398 5.558637 0.000000 0.000000 0.000000 11.616058 30.749179 -51.792894 101.395710 -59.500795 69.852244 25.008083 -18.287737 15.518011 0.000000 0.000000 0.000000 -7.125000 0.000000 0.000000 -1.770927 12.951319 -1.329524 0.000000 0.000000 0.000000 -4.721720 12.747604 35.212075 -124.601829 -54.946997 -89.456759 -27.875757 -7.905627 -2.590060 0.000000 0.000000 0.000000 7.125000 0.000000 0.000000 -0.981371 27.050171 -0.427382
-0.422937 21.217353 -3.492239 183.150167 -2.723481 -165.979673 0.000000 0.000000 0.000000 -6.153422 -12.914308 -53.949241 20.866760 19.979720 92.535344 0.309086 -10.036590 -11.342654 0.181359 -2.743045 -7.564095 0.000000 0.000000 0.000000 30.448723 -1.984597 -9.249880 -4.607097 -12.922612 39.086973 -1.282960 -0.017309 -21.420301 -4.422665 12.702368 -38.264674 3.310653 1.658851 10.786858 3.015006 2.791853 -2.383430 0.851662 1.209520 -8.604408 -3.838887 -3.895207 -18.274649 0.093250 -4.367482 8.453676 0.204031 -2.276630 5.586146 0.000000 0.000000 0.000000 11.959780 31.221229 -52.004893 102.002627 -59.446384 70.375133 24.885470 -18.315246 15.510223 0.000000 0.000000 0.000000 -7.125000 0.000000 0.000000 -1.852561 12.976363 -1.389937 0.000000 0.000000 0.000000 -4.905996 12.711699 35.552368 -125.317032 -54.712955 -90.041775 -27.805805 -8.028882 -2.737467 0.000000 0.000000 0.000000 7.125000 0.000000 0.000000 -0.923673 26.885473 -0.405875
-0.412088 21.225561 -3.675158 183.267290 -2.783197 -166.029301 0.000000 0.000000 0.000000 -6.069397 -13.016394 -54.300550 20.601059 19.989794 91.757795 0.303958 -10.005029 -11.268151 0.184296 -2.765063 -7.625219 0.000000 0.000000 0.000000 30.559720 -2.363177 -8.290575 -4.427012 -12.705170 38.278814 -1.197230 0.286170 -20.589969 -4.446585 12.732035 -38.373605 3.438137 1.735965 10.642593 2.995028 2.903955 -2.427560 0.742662 1.256677 -8.560954 -3.919906 -3.988122 -18.251559 0.184581 -4.481562 8.532699 0.233757 -2.326917 5.613601 0.000000 0.000000 0.000000 12.297056 31.695906 -52.207495 102.598855 -59.390595 70.888559 24.770996 -18.337699 15.500915 0.000000 0.000000 0.000000 -7.125000 0.000000 0.000000 -1.928640 13.001863 -1.446096 0.000000 0.000000 0.000000 -5.091878 12.677769 35.894971 -126.013028 -54.479911 -90.609777 -27.735690 -8.142360 -2.889593 0.000000 0.000000 0.000000 7.125000 0.000000 0.000000 -0.865747 26.715653 -0.383977
